<svg xmlns="http://www.w3.org/2000/svg" width="512" height="512" viewBox="0 0 512 512">
  <rect width="512" height="512" rx="64" fill="#fef3c7"/>
  <circle cx="256" cy="242" r="126" fill="#ffe0c2"/>
  <path d="M140 212c10-88 70-144 116-144 62 0 118 40 128 154-28-28-68-44-128-44-48 0-86 8-116 34Z" fill="#5b3424"/>
  <circle cx="204" cy="246" r="12" fill="#1e293b"/>
  <circle cx="308" cy="246" r="12" fill="#1e293b"/>
  <path d="M222 304c16 12 34 18 54 18s38-6 54-18" fill="none" stroke="#ec4899" stroke-linecap="round" stroke-width="12"/>
  <circle cx="178" cy="286" r="18" fill="#f9a8d4" opacity=".55"/>
  <circle cx="334" cy="286" r="18" fill="#f9a8d4" opacity=".55"/>
  <rect x="174" y="370" width="164" height="90" rx="34" fill="#a78bfa"/>
</svg>
